{"title":"Superstar (2012) BDRip-AVC MediaClub (RUS. FRA)","uid":9861163,"size":2096548537,"categoryP":"video","categoryS":"hd___movies","magnet":"?xt=urn:btih:268c3b8a06bafbcad4428b65f0cc0513024cf2ec&amp;dn=Superstar+%282012%29+BDRip-AVC+MediaClub+%28RUS.+FRA%29+&amp;tr=udp%3A%2F%2Ftracker.openbittorrent.com%3A80&amp;tr=udp%3A%2F%2Fopen.demonii.com%3A1337&amp;tr=udp%3A%2F%2Ftracker.coppersurfer.tk%3A6969&amp;tr=udp%3A%2F%2Fexodus.desync.com%3A6969","seeders":1,"leechers":0,"uploader":"neni69","files":1,"time":1396300279,"description":" &lt;a href=&quot; http://mediaclub.tv/&quot; rel=&quot;nofollow&quot; target=&quot;_NEW&quot;&gt; http://mediaclub.tv/&lt;/a&gt;   Welcome to MediaClub\n\n===================================================================\n\nUnique ID                      : 227133212810795114586256725525757929852 (0xAAE043FDD1A2B21692052FE3C0BBA97C)\nComplete name                  : E:MCSuperstar.2012.x264.BDRip(AVC)-MediaClubSuperstar.2012.x264.BDRip(AVC)-MediaClub.mkv\nFormat                         : Matroska\nFormat version                 : Version 4 / Version 2\nFile size                      : 1.95 GiB\nDuration                       : 1h 52mn\nOverall bit rate               : 2 480 Kbps\nMovie name                     : -= Release MediaClub =-\nEncoded date                   : UTC 2014-03-31 10:29:57\nWriting application            : mkvmerge v6.1.0 ('Old Devil') built on Mar  4 2013 09:10:42\nWriting library                : libebml v1.3.0 + libmatroska v1.4.0\n\nVideo\nID                             : 1\nFormat                         : AVC\nFormat/Info                    : Advanced Video Codec\nFormat profile                 : &lt;a class=&quot;__cf_email__&quot; href=&quot;/cdn-cgi/l/email-protection&quot; data-cfemail=&quot;fdb5949a95bdb1c9d3cc&quot;&gt;[email&amp;#160;protected]&lt;/a&gt;&lt;script cf-hash='f9e31' type=&quot;text/javascript&quot;&gt;\n/* &lt;![CDATA[ */!function(){try{var t=&quot;currentScript&quot;in document?document.currentScript:function(){for(var t=document.getElementsByTagName(&quot;script&quot;),e=t.length;e--;)if(t[e].getAttribute(&quot;cf-hash&quot;))return t[e]}();if(t&amp;&amp;t.previousSibling){var e,r,n,i,c=t.previousSibling,a=c.getAttribute(&quot;data-cfemail&quot;);if(a){for(e=&quot;&quot;,r=parseInt(a.substr(0,2),16),n=2;a.length-n;n+=2)i=parseInt(a.substr(n,2),16)^r,e+=String.fromCharCode(i);e=document.createTextNode(e),c.parentNode.replaceChild(e,c)}}}catch(u){}}();/* ]]&gt; */&lt;/script&gt;\nFormat settings, CABAC         : Yes\nFormat settings, ReFrames      : 11 frames\nCodec ID                       : V_MPEG4/ISO/AVC\nDuration                       : 1h 52mn\nBit rate                       : 1 585 Kbps\nWidth                          : 1 024 pixels\nHeight                         : 436 pixels\nDisplay aspect ratio           : 2.35:1\nFrame rate                     : 24.000 fps\nColor space                    : YUV\nChroma subsampling             : 4:2:0\nBit depth                      : 8 bits\nScan type                      : Progressive\nBits/(Pixel*Frame)             : 0.148\nStream size                    : 1.21 GiB (62%)\nTitle                          : Superstar.2012.x264.BDRip(AVC)-neni\nWriting library                : x264 core 130 r2273 b3065e6\nEncoding settings              : cabac=1 / ref=11 / deblock=1:-3:-3 / analyse=0x3:0x133 / me=tesa / subme=11 / psy=1 / psy_rd=1.00:0.10 / mixed_ref=1 / me_range=32 / chroma_me=1 / trellis=2 / 8x8dct=1 / cqm=0 / deadzone=21,11 / fast_pskip=0 / chroma_qp_offset=-3 / threads=9 / lookahead_threads=2 / sliced_threads=0 / nr=0 / decimate=0 / interlaced=0 / bluray_compat=0 / constrained_intra=0 / bframes=10 / b_pyramid=2 / b_adapt=2 / b_bias=0 / direct=3 / weightb=1 / open_gop=0 / weightp=2 / keyint=240 / keyint_min=23 / scenecut=40 / intra_refresh=0 / rc=2pass / mbtree=0 / bitrate=1585 / ratetol=1.0 / qcomp=0.60 / qpmin=0 / qpmax=69 / qpstep=4 / cplxblur=20.0 / qblur=0.5 / ip_ratio=1.40 / pb_ratio=1.30 / aq=2:1.20\nLanguage                       : French\nDefault                        : Yes\nForced                         : Yes\n\nAudio #1\nID                             : 2\nFormat                         : AC-3\nFormat/Info                    : Audio Coding 3\nMode extension                 : CM (complete main)\nFormat settings, Endianness    : Big\nCodec ID                       : A_AC3\nDuration                       : 1h 52mn\nBit rate mode                  : Constant\nBit rate                       : 448 Kbps\nChannel(s)                     : 6 channels\nChannel positions              : Front: L C R, Side: L R, LFE\nSampling rate                  : 48.0 KHz\nBit depth                      : 16 bits\nCompression mode               : Lossy\nStream size                    : 361 MiB (18%)\nTitle                          : DD 5.1 @ 448 kbps - MVO, R5\nLanguage                       : Russian\nDefault                        : Yes\nForced                         : Yes\n\nAudio #2\nID                             : 3\nFormat                         : AC-3\nFormat/Info                    : Audio Coding 3\nMode extension                 : CM (complete main)\nFormat settings, Endianness    : Big\nCodec ID                       : A_AC3\nDuration                       : 1h 52mn\nBit rate mode                  : Constant\nBit rate                       : 448 Kbps\nChannel(s)                     : 6 channels\nChannel positions              : Front: L C R, Side: L R, LFE\nSampling rate                  : 48.0 KHz\nBit depth                      : 16 bits\nCompression mode               : Lossy\nStream size                    : 361 MiB (18%)\nTitle                          : Original\nLanguage                       : French\nDefault                        : No\nForced                         : No\n\nText\nID                             : 4\nFormat                         : UTF-8\nCodec ID                       : S_TEXT/UTF8\nCodec ID/Info                  : UTF-8 Plain Text\nTitle                          : R5\nLanguage                       : Russian\nDefault                        : No\nForced                         : No\n\nMenu\n00:00:00.000                   : en:00:00:00.000\n00:06:56.791                   : en:00:06:56.791\n00:12:26.204                   : en:00:12:26.204\n00:19:36.801                   : en:00:19:36.801\n00:28:18.071                   : en:00:28:18.071\n00:34:45.333                   : en:00:34:45.333\n00:40:18.291                   : en:00:40:18.291\n00:47:10.786                   : en:00:47:10.786\n00:56:36.768                   : en:00:56:36.768\n01:04:54.808                   : en:01:04:54.808\n01:12:39.772                   : en:01:12:39.772\n01:17:50.749                   : en:01:17:50.749\n01:23:50.234                   : en:01:23:50.234\n01:32:00.640                   : en:01:32:00.640\n01:42:41.322                   : en:01:42:41.322\n01:46:53.866                   : en:01:46:53.866","torrent":{"xt":"urn:btih:268c3b8a06bafbcad4428b65f0cc0513024cf2ec","amp;dn":"Superstar+%282012%29+BDRip-AVC+MediaClub+%28RUS.+FRA%29+","amp;tr":["udp%3A%2F%2Ftracker.openbittorrent.com%3A80","udp%3A%2F%2Fopen.demonii.com%3A1337","udp%3A%2F%2Ftracker.coppersurfer.tk%3A6969","udp%3A%2F%2Fexodus.desync.com%3A6969"],"infoHash":"268c3b8a06bafbcad4428b65f0cc0513024cf2ec","infoHashBuffer":{"type":"Buffer","data":[38,140,59,138,6,186,251,202,212,66,139,101,240,204,5,19,2,76,242,236]},"announce":[],"urlList":[]}}